<svg width="20" height="20" viewBox="0 0 20 20" fill="none" xmlns="http://www.w3.org/2000/svg">
<g id="stethoscope_FILL0_wght400_GRAD0_opsz24 (3) 1">
<path id="Vector" d="M11.25 18.3332C9.74996 18.3332 8.47218 17.8054 7.41663 16.7498C6.36107 15.6943 5.83329 14.4165 5.83329 12.9165V12.4373C4.63885 12.2429 3.64579 11.6839 2.85413 10.7603C2.06246 9.83664 1.66663 8.74984 1.66663 7.49984V2.49984H4.16663V1.6665H5.83329V4.99984H4.16663V4.1665H3.33329V7.49984C3.33329 8.4165 3.65968 9.20123 4.31246 9.854C4.96524 10.5068 5.74996 10.8332 6.66663 10.8332C7.58329 10.8332 8.36801 10.5068 9.02079 9.854C9.67357 9.20123 9.99996 8.4165 9.99996 7.49984V4.1665H9.16663V4.99984H7.49996V1.6665H9.16663V2.49984H11.6666V7.49984C11.6666 8.74984 11.2708 9.83664 10.4791 10.7603C9.68746 11.6839 8.6944 12.2429 7.49996 12.4373V12.9165C7.49996 13.9582 7.86454 14.8436 8.59371 15.5728C9.32288 16.3019 10.2083 16.6665 11.25 16.6665C12.2916 16.6665 13.177 16.3019 13.9062 15.5728C14.6354 14.8436 15 13.9582 15 12.9165V11.5207C14.5138 11.354 14.1145 11.0554 13.802 10.6248C13.4895 10.1943 13.3333 9.70817 13.3333 9.1665C13.3333 8.47206 13.5763 7.88178 14.0625 7.39567C14.5486 6.90956 15.1388 6.6665 15.8333 6.6665C16.5277 6.6665 17.118 6.90956 17.6041 7.39567C18.0902 7.88178 18.3333 8.47206 18.3333 9.1665C18.3333 9.70817 18.177 10.1943 17.8645 10.6248C17.552 11.0554 17.1527 11.354 16.6666 11.5207V12.9165C16.6666 14.4165 16.1388 15.6943 15.0833 16.7498C14.0277 17.8054 12.75 18.3332 11.25 18.3332ZM15.8333 9.99984C16.0694 9.99984 16.2673 9.91998 16.427 9.76025C16.5868 9.60053 16.6666 9.40261 16.6666 9.1665C16.6666 8.93039 16.5868 8.73248 16.427 8.57275C16.2673 8.41303 16.0694 8.33317 15.8333 8.33317C15.5972 8.33317 15.3993 8.41303 15.2395 8.57275C15.0798 8.73248 15 8.93039 15 9.1665C15 9.40261 15.0798 9.60053 15.2395 9.76025C15.3993 9.91998 15.5972 9.99984 15.8333 9.99984Z" fill="#19B3B5"/>
</g>
</svg>
