<svg xmlns="http://www.w3.org/2000/svg" xmlns:xlink="http://www.w3.org/1999/xlink" width="13.129" height="8.079" viewBox="0 0 13.129 8.079">
  <defs>
    <clipPath id="clip-path">
      <rect id="Rectangle_16090" data-name="Rectangle 16090" width="8.079" height="13.129" transform="translate(0 0)" fill="#313131"/>
    </clipPath>
  </defs>
  <g id="Group_15402" data-name="Group 15402" transform="translate(0 8.079) rotate(-90)">
    <g id="Group_15397" data-name="Group 15397" transform="translate(0 0)" clip-path="url(#clip-path)">
      <path id="Path_41194" data-name="Path 41194" d="M0,6.513a1.375,1.375,0,0,1,.48-.986Q2.53,3.637,4.575,1.742C5.095,1.261,5.605.768,6.138.3a1.119,1.119,0,0,1,1.8.379,1.33,1.33,0,0,1-.289,1.586Q5.614,4.161,3.574,6.041a4.408,4.408,0,0,1-.351.324c-.207.153-.163.261.008.417q2.172,1.991,4.332,4a1.374,1.374,0,0,1,.39,1.636,1.131,1.131,0,0,1-1.806.423c-.492-.429-.966-.885-1.447-1.329Q2.595,9.563.489,7.616A1.413,1.413,0,0,1,0,6.513" transform="translate(0 0)" fill="#313131"/>
    </g>
  </g>
</svg>
