<svg width="23" height="23" viewBox="0 0 23 23" fill="none" xmlns="http://www.w3.org/2000/svg">
<g id="edit_FILL0_wght400_GRAD0_opsz24 1">
<path id="Vector" d="M5.1875 17.8125H6.5L14.5859 9.72656L13.2734 8.41406L5.1875 16.5V17.8125ZM18.5938 8.36719L14.6094 4.42969L15.9219 3.11719C16.2813 2.75781 16.7227 2.57812 17.2461 2.57812C17.7695 2.57812 18.2109 2.75781 18.5703 3.11719L19.8828 4.42969C20.2422 4.78906 20.4297 5.22266 20.4453 5.73047C20.4609 6.23828 20.2891 6.67188 19.9297 7.03125L18.5938 8.36719ZM17.2344 9.75L7.29688 19.6875H3.3125V15.7031L13.25 5.76562L17.2344 9.75ZM13.9297 9.07031L13.2734 8.41406L14.5859 9.72656L13.9297 9.07031Z" fill="#979797"/>
</g>
</svg>
