<svg width="84" height="84" viewBox="0 0 84 84" fill="none" xmlns="http://www.w3.org/2000/svg">
<g id="Group 295947">
<g id="Group 293942">
<g id="Group 17578">
<path id="Vector" d="M68.3822 42.1989C68.3822 56.2989 56.9503 67.7308 42.8503 67.7308C28.7503 67.7308 17.3184 56.2989 17.3184 42.1989C17.3184 28.0989 28.7503 16.667 42.8503 16.667C56.9503 16.667 68.3822 28.0989 68.3822 42.1989Z" fill="#F06386"/>
<path id="Vector_2" d="M42.6663 39.7889L46.5244 35.9308C47.3001 35.1551 48.6065 35.1551 49.4026 35.9308C50.1987 36.7269 50.1987 38.0129 49.4026 38.809L45.5446 42.6671L49.4026 46.5251C50.1987 47.3212 50.1987 48.6072 49.4026 49.4033C48.6065 50.1994 47.3205 50.1994 46.5244 49.4033L42.6663 45.5453L38.8083 49.4033C38.0122 50.1994 36.7262 50.1994 35.9301 49.4033C35.134 48.6072 35.134 47.3212 35.9301 46.5251L39.7881 42.6671L35.9301 38.809C35.134 38.0129 35.134 36.7269 35.9301 35.9308C36.7262 35.1347 38.0122 35.1347 38.8083 35.9308L42.6663 39.7889Z" fill="white"/>
</g>
</g>
<g id="Group 295945">
<g id="Group 295939">
<path id="Line 510" d="M42 9.21313L42 2.00002" stroke="#F06386" stroke-width="2.66667" stroke-linecap="round"/>
<path id="Line 511" d="M42 82L42 74.7869" stroke="#F06386" stroke-width="2.66667" stroke-linecap="round"/>
</g>
<g id="Group 295940">
<path id="Line 510_2" d="M58.3936 13.6057L62.0001 7.35897" stroke="#F06386" stroke-width="2.66667" stroke-linecap="round"/>
<path id="Line 511_2" d="M22 76.6406L25.6066 70.3939" stroke="#F06386" stroke-width="2.66667" stroke-linecap="round"/>
</g>
<g id="Group 295943">
<path id="Line 510_3" d="M25.6064 13.6057L21.9999 7.35897" stroke="#F06386" stroke-width="2.66667" stroke-linecap="round"/>
<path id="Line 511_3" d="M62 76.6406L58.3934 70.3939" stroke="#F06386" stroke-width="2.66667" stroke-linecap="round"/>
</g>
<g id="Group 295941">
<path id="Line 510_4" d="M70.3936 25.6067L76.6403 22.0001" stroke="#F06386" stroke-width="2.66667" stroke-linecap="round"/>
<path id="Line 511_4" d="M7.3584 62L13.6051 58.3934" stroke="#F06386" stroke-width="2.66667" stroke-linecap="round"/>
</g>
<g id="Group 295944">
<path id="Line 510_5" d="M13.6064 25.6067L7.3597 22.0001" stroke="#F06386" stroke-width="2.66667" stroke-linecap="round"/>
<path id="Line 511_5" d="M76.6416 62L70.3949 58.3934" stroke="#F06386" stroke-width="2.66667" stroke-linecap="round"/>
</g>
<g id="Group 295942">
<path id="Line 510_6" d="M74.7871 42L82.0002 42" stroke="#F06386" stroke-width="2.66667" stroke-linecap="round"/>
<path id="Line 511_6" d="M2 42L9.21311 42" stroke="#F06386" stroke-width="2.66667" stroke-linecap="round"/>
</g>
</g>
</g>
</svg>
