<svg width="20" height="20" viewBox="0 0 20 20" fill="none" xmlns="http://www.w3.org/2000/svg">
<g id="health_and_safety_FILL0_wght400_GRAD0_opsz24 1">
<path id="Vector" d="M8.74992 12.9165H11.2499V10.8332H13.3333V8.33317H11.2499V6.24984H8.74992V8.33317H6.66658V10.8332H8.74992V12.9165ZM9.99992 18.3332C8.06936 17.8471 6.47561 16.7394 5.21867 15.0103C3.96172 13.2811 3.33325 11.3609 3.33325 9.24984V4.1665L9.99992 1.6665L16.6666 4.1665V9.24984C16.6666 11.3609 16.0381 13.2811 14.7812 15.0103C13.5242 16.7394 11.9305 17.8471 9.99992 18.3332ZM9.99992 16.5832C11.4444 16.1248 12.6388 15.2082 13.5833 13.8332C14.5277 12.4582 14.9999 10.9304 14.9999 9.24984V5.31234L9.99992 3.43734L4.99992 5.31234V9.24984C4.99992 10.9304 5.47214 12.4582 6.41659 13.8332C7.36103 15.2082 8.55547 16.1248 9.99992 16.5832Z" fill="#19B3B5"/>
</g>
</svg>
