<svg width="84" height="84" viewBox="0 0 84 84" fill="none" xmlns="http://www.w3.org/2000/svg">
<path d="M68.3832 42.0002C68.3832 56.1002 56.9513 67.5321 42.8513 67.5321C28.7513 67.5321 17.3193 56.1002 17.3193 42.0002C17.3193 27.9002 28.7513 16.4683 42.8513 16.4683C56.9513 16.4683 68.3832 27.9002 68.3832 42.0002Z" fill="#DDF9D1"/>
<path d="M51.8577 31.7876L37.9035 46.2092L32.1429 40.2797L29.2349 43.2816L37.9076 52.2131L54.7668 34.7895L51.8577 31.7876Z" fill="#59D129"/>
<path d="M42.0005 9.21289L42.0005 1.99978" stroke="#59D129" stroke-width="2.28571" stroke-linecap="round"/>
<path d="M42.0005 82L42.0005 74.7869" stroke="#59D129" stroke-width="2.28571" stroke-linecap="round"/>
<path d="M58.3936 13.605L62.0001 7.35824" stroke="#59D129" stroke-width="2.28571" stroke-linecap="round"/>
<path d="M22 76.6401L25.6066 70.3934" stroke="#59D129" stroke-width="2.28571" stroke-linecap="round"/>
<path d="M25.6069 13.6055L22.0004 7.35873" stroke="#59D129" stroke-width="2.28571" stroke-linecap="round"/>
<path d="M62.0005 76.6406L58.3939 70.3939" stroke="#59D129" stroke-width="2.28571" stroke-linecap="round"/>
<path d="M70.394 25.6064L76.6408 21.9999" stroke="#59D129" stroke-width="2.28571" stroke-linecap="round"/>
<path d="M7.35791 61.9995L13.6047 58.393" stroke="#59D129" stroke-width="2.28571" stroke-linecap="round"/>
<path d="M13.606 25.6069L7.35922 22.0004" stroke="#59D129" stroke-width="2.28571" stroke-linecap="round"/>
<path d="M76.6416 62L70.3949 58.3934" stroke="#59D129" stroke-width="2.28571" stroke-linecap="round"/>
<path d="M74.7871 42L82.0002 42" stroke="#59D129" stroke-width="2.28571" stroke-linecap="round"/>
<path d="M2 42L9.21311 42" stroke="#59D129" stroke-width="2.28571" stroke-linecap="round"/>
</svg>
