<svg width="20" height="20" viewBox="0 0 20 20" fill="none" xmlns="http://www.w3.org/2000/svg">
<g id="stethoscope_FILL0_wght400_GRAD0_opsz24 (3) 1">
<path id="Vector" d="M11.2501 18.3332C9.75008 18.3332 8.4723 17.8054 7.41675 16.7498C6.36119 15.6943 5.83341 14.4165 5.83341 12.9165V12.4373C4.63897 12.2429 3.64591 11.6839 2.85425 10.7603C2.06258 9.83664 1.66675 8.74984 1.66675 7.49984V2.49984H4.16675V1.6665H5.83341V4.99984H4.16675V4.1665H3.33341V7.49984C3.33341 8.4165 3.6598 9.20123 4.31258 9.854C4.96536 10.5068 5.75008 10.8332 6.66675 10.8332C7.58341 10.8332 8.36814 10.5068 9.02091 9.854C9.67369 9.20123 10.0001 8.4165 10.0001 7.49984V4.1665H9.16675V4.99984H7.50008V1.6665H9.16675V2.49984H11.6667V7.49984C11.6667 8.74984 11.2709 9.83664 10.4792 10.7603C9.68758 11.6839 8.69453 12.2429 7.50008 12.4373V12.9165C7.50008 13.9582 7.86466 14.8436 8.59383 15.5728C9.323 16.3019 10.2084 16.6665 11.2501 16.6665C12.2917 16.6665 13.1772 16.3019 13.9063 15.5728C14.6355 14.8436 15.0001 13.9582 15.0001 12.9165V11.5207C14.514 11.354 14.1147 11.0554 13.8022 10.6248C13.4897 10.1943 13.3334 9.70817 13.3334 9.1665C13.3334 8.47206 13.5765 7.88178 14.0626 7.39567C14.5487 6.90956 15.139 6.6665 15.8334 6.6665C16.5279 6.6665 17.1181 6.90956 17.6042 7.39567C18.0904 7.88178 18.3334 8.47206 18.3334 9.1665C18.3334 9.70817 18.1772 10.1943 17.8647 10.6248C17.5522 11.0554 17.1529 11.354 16.6667 11.5207V12.9165C16.6667 14.4165 16.139 15.6943 15.0834 16.7498C14.0279 17.8054 12.7501 18.3332 11.2501 18.3332ZM15.8334 9.99984C16.0695 9.99984 16.2674 9.91998 16.4272 9.76025C16.5869 9.60053 16.6667 9.40261 16.6667 9.1665C16.6667 8.93039 16.5869 8.73248 16.4272 8.57275C16.2674 8.41303 16.0695 8.33317 15.8334 8.33317C15.5973 8.33317 15.3994 8.41303 15.2397 8.57275C15.0799 8.73248 15.0001 8.93039 15.0001 9.1665C15.0001 9.40261 15.0799 9.60053 15.2397 9.76025C15.3994 9.91998 15.5973 9.99984 15.8334 9.99984Z" fill="#19B3B5"/>
</g>
</svg>
