<svg width="20" height="20" viewBox="0 0 20 20" fill="none" xmlns="http://www.w3.org/2000/svg">
<path d="M10.8332 14.5834L13.7498 11.6667C13.9026 11.514 14.0241 11.3334 14.1144 11.1251C14.2047 10.9167 14.2498 10.6945 14.2498 10.4584C14.2498 9.98619 14.0832 9.58342 13.7498 9.25008C13.4165 8.91675 13.0137 8.75008 12.5415 8.75008C12.2776 8.75008 12.0172 8.82647 11.7603 8.97925C11.5033 9.13203 11.1943 9.38897 10.8332 9.75008C10.4165 9.36119 10.0901 9.0973 9.854 8.95842C9.61789 8.81953 9.37484 8.75008 9.12484 8.75008C8.65262 8.75008 8.24984 8.91675 7.9165 9.25008C7.58317 9.58342 7.4165 9.98619 7.4165 10.4584C7.4165 10.6945 7.46164 10.9167 7.55192 11.1251C7.6422 11.3334 7.76373 11.514 7.9165 11.6667L10.8332 14.5834ZM11.8748 17.8334C11.5554 18.1529 11.1596 18.3126 10.6873 18.3126C10.2151 18.3126 9.81928 18.1529 9.49984 17.8334L2.1665 10.5001C2.01373 10.3473 1.8922 10.1667 1.80192 9.95842C1.71164 9.75008 1.6665 9.52786 1.6665 9.29175V3.33341C1.6665 2.87508 1.8297 2.48272 2.15609 2.15633C2.48248 1.82994 2.87484 1.66675 3.33317 1.66675H9.2915C9.52762 1.66675 9.74984 1.71189 9.95817 1.80216C10.1665 1.89244 10.3471 2.01397 10.4998 2.16675L17.8332 9.52092C18.1526 9.84036 18.3123 10.2327 18.3123 10.698C18.3123 11.1633 18.1526 11.5556 17.8332 11.8751L11.8748 17.8334ZM10.6873 16.6667L16.6457 10.7084L9.2915 3.33341H3.33317V9.29175L10.6873 16.6667ZM5.4165 6.66675C5.76373 6.66675 6.05887 6.54522 6.30192 6.30217C6.54498 6.05911 6.6665 5.76397 6.6665 5.41675C6.6665 5.06953 6.54498 4.77439 6.30192 4.53133C6.05887 4.28828 5.76373 4.16675 5.4165 4.16675C5.06928 4.16675 4.77414 4.28828 4.53109 4.53133C4.28803 4.77439 4.1665 5.06953 4.1665 5.41675C4.1665 5.76397 4.28803 6.05911 4.53109 6.30217C4.77414 6.54522 5.06928 6.66675 5.4165 6.66675Z" fill="#19B3B5"/>
</svg>
