<svg width="20" height="20" viewBox="0 0 20 20" fill="none" xmlns="http://www.w3.org/2000/svg">
<path d="M4.87484 14.2501C5.58317 13.7084 6.37484 13.2813 7.24984 12.9688C8.12484 12.6563 9.0415 12.5001 9.99984 12.5001C10.9582 12.5001 11.8748 12.6563 12.7498 12.9688C13.6248 13.2813 14.4165 13.7084 15.1248 14.2501C15.6109 13.6806 15.9894 13.0348 16.2603 12.3126C16.5311 11.5904 16.6665 10.8195 16.6665 10.0001C16.6665 8.15286 16.0172 6.57994 14.7186 5.28133C13.42 3.98272 11.8471 3.33341 9.99984 3.33341C8.15261 3.33341 6.5797 3.98272 5.28109 5.28133C3.98248 6.57994 3.33317 8.15286 3.33317 10.0001C3.33317 10.8195 3.46859 11.5904 3.73942 12.3126C4.01025 13.0348 4.38873 13.6806 4.87484 14.2501ZM9.99984 10.8334C9.18039 10.8334 8.48942 10.5522 7.92692 9.98966C7.36442 9.42716 7.08317 8.73619 7.08317 7.91675C7.08317 7.0973 7.36442 6.40633 7.92692 5.84383C8.48942 5.28133 9.18039 5.00008 9.99984 5.00008C10.8193 5.00008 11.5103 5.28133 12.0728 5.84383C12.6353 6.40633 12.9165 7.0973 12.9165 7.91675C12.9165 8.73619 12.6353 9.42716 12.0728 9.98966C11.5103 10.5522 10.8193 10.8334 9.99984 10.8334ZM9.99984 18.3334C8.84706 18.3334 7.76373 18.1147 6.74984 17.6772C5.73595 17.2397 4.854 16.6459 4.104 15.8959C3.354 15.1459 2.76025 14.264 2.32275 13.2501C1.88525 12.2362 1.6665 11.1529 1.6665 10.0001C1.6665 8.8473 1.88525 7.76397 2.32275 6.75008C2.76025 5.73619 3.354 4.85425 4.104 4.10425C4.854 3.35425 5.73595 2.7605 6.74984 2.323C7.76373 1.8855 8.84706 1.66675 9.99984 1.66675C11.1526 1.66675 12.2359 1.8855 13.2498 2.323C14.2637 2.7605 15.1457 3.35425 15.8957 4.10425C16.6457 4.85425 17.2394 5.73619 17.6769 6.75008C18.1144 7.76397 18.3332 8.8473 18.3332 10.0001C18.3332 11.1529 18.1144 12.2362 17.6769 13.2501C17.2394 14.264 16.6457 15.1459 15.8957 15.8959C15.1457 16.6459 14.2637 17.2397 13.2498 17.6772C12.2359 18.1147 11.1526 18.3334 9.99984 18.3334ZM9.99984 16.6667C10.7359 16.6667 11.4304 16.5591 12.0832 16.3438C12.7359 16.1286 13.3332 15.8195 13.8748 15.4167C13.3332 15.014 12.7359 14.7049 12.0832 14.4897C11.4304 14.2744 10.7359 14.1667 9.99984 14.1667C9.26373 14.1667 8.56928 14.2744 7.9165 14.4897C7.26373 14.7049 6.6665 15.014 6.12484 15.4167C6.6665 15.8195 7.26373 16.1286 7.9165 16.3438C8.56928 16.5591 9.26373 16.6667 9.99984 16.6667ZM9.99984 9.16675C10.3609 9.16675 10.6596 9.04869 10.8957 8.81258C11.1318 8.57647 11.2498 8.27786 11.2498 7.91675C11.2498 7.55564 11.1318 7.25703 10.8957 7.02091C10.6596 6.7848 10.3609 6.66675 9.99984 6.66675C9.63873 6.66675 9.34011 6.7848 9.104 7.02091C8.86789 7.25703 8.74984 7.55564 8.74984 7.91675C8.74984 8.27786 8.86789 8.57647 9.104 8.81258C9.34011 9.04869 9.63873 9.16675 9.99984 9.16675Z" fill="#19B3B5"/>
</svg>
