<svg width="195" height="44" viewBox="0 0 195 44" fill="none" xmlns="http://www.w3.org/2000/svg">
<mask id="mask0_144_659" style="mask-type:alpha" maskUnits="userSpaceOnUse" x="0" y="0" width="195" height="44">
<rect y="0.00732422" width="195" height="43.0625" fill="#D9D9D9"/>
</mask>
<g mask="url(#mask0_144_659)">
<path d="M12.9924 4.60704C10.3642 1.94186 6.10269 1.94186 3.47456 4.60704C0.843114 7.26886 0.843114 11.5884 3.47456 14.2502L8.2318 19.0718L12.9924 14.2502C15.6205 11.5884 15.6205 7.27223 12.9924 4.60704" fill="#FBDB00"/>
<path d="M22.5412 4.60671C19.9131 1.9449 15.6515 1.9449 13.0234 4.60671C10.3919 7.26853 10.3919 11.5881 13.0234 14.2499L17.7806 19.0715L22.5412 14.2499C25.1693 11.5881 25.1693 7.2719 22.5412 4.60671" fill="#7CC14B"/>
<path d="M17.7789 9.45217C15.1508 6.79036 10.8893 6.79036 8.26113 9.45217C5.63301 12.114 5.63301 16.4302 8.26113 19.092L13.0217 23.9136L17.7823 19.092C20.4104 16.4302 20.4104 12.114 17.7823 9.45217" fill="#19B3B5"/>
<path d="M182.212 40.7842C182.212 41.3132 181.786 41.7412 181.264 41.7412C180.741 41.7412 180.315 41.3132 180.315 40.7842C180.315 40.2553 180.741 39.824 181.264 39.824C181.786 39.824 182.212 40.2519 182.212 40.7842Z" fill="#19B3B5"/>
<path d="M184.269 40.7842C184.269 41.3132 183.847 41.7412 183.321 41.7412C182.796 41.7412 182.373 41.3132 182.373 40.7842C182.373 40.2553 182.799 39.824 183.321 39.824C183.843 39.824 184.269 40.2519 184.269 40.7842Z" fill="#19B3B5"/>
<path d="M164.445 33.9309C164.425 33.5569 164.359 33.1998 164.255 32.8628C164.249 32.8392 164.242 32.8156 164.236 32.7921C164.226 32.7584 164.216 32.7247 164.202 32.6943C164.119 32.4619 164.023 32.2395 163.903 32.0238C163.534 31.3668 163.021 30.8547 162.363 30.4874C161.704 30.1201 160.955 29.9348 160.12 29.9348C160.114 29.9348 160.107 29.9348 160.1 29.9348C160.094 29.9348 160.087 29.9348 160.084 29.9348C159.249 29.9348 158.5 30.1201 157.842 30.4874C157.183 30.8547 156.667 31.3668 156.301 32.0238C156.182 32.2395 156.085 32.4619 156.002 32.6943C155.989 32.728 155.979 32.7617 155.965 32.7921C155.955 32.8156 155.952 32.8392 155.945 32.8628C155.845 33.1998 155.779 33.5569 155.759 33.9309C155.752 34.032 155.749 34.1331 155.749 34.2342V36.6938C155.749 36.9903 155.836 37.2262 156.005 37.4014C156.175 37.5732 156.414 37.6608 156.724 37.6608H163.477C163.786 37.6608 164.026 37.5732 164.196 37.4014C164.369 37.2262 164.452 36.9937 164.452 36.6938V34.2342C164.452 34.1297 164.448 34.032 164.442 33.9309M162.858 35.747H157.333V34.5172C157.333 33.6917 157.562 33.0616 158.028 32.6168C158.031 32.6135 158.034 32.6067 158.041 32.6034L158.048 32.5966C158.071 32.573 158.094 32.5562 158.121 32.536C158.59 32.135 159.245 31.9295 160.09 31.9295H160.104C160.949 31.9295 161.604 32.1317 162.073 32.536C162.096 32.5562 162.123 32.573 162.146 32.5966L162.153 32.6034C162.156 32.6067 162.16 32.6135 162.163 32.6168C162.625 33.0616 162.858 33.6951 162.858 34.5172V35.747Z" fill="#19B3B5"/>
<path d="M177.286 34.4834C177.282 35.8312 177.286 37.1755 177.286 38.5233C177.286 38.5738 177.286 38.6244 177.286 38.6749V34.4834H177.282H177.286Z" fill="#19B3B5"/>
<path d="M177.345 39.0219C177.306 38.9174 177.292 38.7961 177.289 38.6748V38.9376C177.289 39.3756 177.189 39.7058 176.993 39.9215C176.797 40.1371 176.527 40.2449 176.184 40.2449C175.992 40.2449 175.812 40.2079 175.646 40.1304C175.476 40.0563 175.306 39.9417 175.133 39.7901C175.01 39.6688 174.894 39.5845 174.787 39.5306C174.681 39.4734 174.564 39.4464 174.431 39.4464C174.215 39.4464 174.025 39.5205 173.859 39.6755C173.696 39.8271 173.616 40.0259 173.616 40.2719C173.616 40.5751 173.773 40.8615 174.079 41.121C174.321 41.3164 174.631 41.4781 175.01 41.6095C175.389 41.7409 175.762 41.805 176.121 41.805C177.096 41.805 177.845 41.5354 178.367 40.9997C178.633 40.7268 178.826 40.3999 178.956 40.0091C178.463 40.0226 177.951 39.9046 177.691 39.6553C177.525 39.4936 177.425 39.2442 177.339 39.0185" fill="#19B3B5"/>
<path d="M179.157 33.7487C179.157 33.6173 179.14 33.4994 179.11 33.3983C179.02 33.1422 178.834 32.967 178.558 32.8828C177.869 32.6638 177.294 33.0883 177.287 33.8397C177.287 34.0553 177.287 34.271 177.287 34.4832H177.29V38.6714C177.294 38.7927 177.307 38.914 177.347 39.0218C177.433 39.2475 177.533 39.4935 177.7 39.6552C177.956 39.9046 178.468 40.0225 178.964 40.009C179.09 39.6249 179.157 39.1835 179.157 38.6815V33.7453V33.7487Z" fill="#19B3B5"/>
<path d="M174.2 33.7557C173.864 33.5266 173.448 33.3412 172.952 33.193L171.515 32.7718C170.999 32.6236 170.63 32.4686 170.411 32.3102C170.188 32.1485 170.081 31.9059 170.081 31.569C170.081 31.2691 170.194 31.0366 170.427 30.8681C170.647 30.7098 170.963 30.6255 171.375 30.6188C171.395 30.6188 171.415 30.6154 171.435 30.6154C171.748 30.6154 172.064 30.6626 172.383 30.7569C172.699 30.8513 173.065 31.0096 173.481 31.2354C173.674 31.3466 173.887 31.4005 174.117 31.4005C174.366 31.4005 174.576 31.3095 174.749 31.1208C174.918 30.9355 175.001 30.7098 175.001 30.4503C175.001 30.4402 175.001 30.4301 174.998 30.42C174.985 29.9853 174.685 29.6484 174.09 29.3991C173.704 29.2205 173.265 29.0891 172.776 28.9981C172.733 28.988 172.686 28.9846 172.639 28.9779C172.2 28.9071 171.781 28.8667 171.379 28.8667C170.377 28.8667 169.546 29.1059 168.884 29.581C168.684 29.7259 168.521 29.891 168.381 30.0763C168.059 30.5042 167.896 31.0433 167.896 31.6936C167.896 33.0751 168.747 34.0219 170.454 34.5374L171.558 34.844C172.147 35.0125 172.553 35.1809 172.773 35.3494C172.992 35.5179 173.105 35.747 173.105 36.0368C173.105 36.094 173.102 36.1446 173.095 36.1918C173.062 36.4815 172.946 36.7005 172.739 36.8555C172.496 37.0341 172.137 37.1284 171.668 37.1284C171.166 37.1284 170.633 36.997 170.075 36.7309C169.872 36.6365 169.669 36.5287 169.459 36.4007C169.379 36.3535 169.313 36.313 169.25 36.276C169.18 36.2221 169.113 36.1648 169.05 36.1075C168.784 35.8582 168.524 35.5145 168.261 35.0731C168.168 34.9046 168.079 34.7766 167.989 34.6924C167.899 34.6048 167.799 34.5408 167.689 34.4936C167.423 34.3858 167.167 34.3824 166.917 34.4801C166.671 34.5778 166.492 34.7631 166.385 35.0327C166.262 35.3427 166.305 35.7133 166.525 36.1446C166.788 36.6264 167.167 37.0678 167.653 37.4721C167.792 37.59 167.939 37.6945 168.088 37.7989C168.172 37.8798 168.271 37.9506 168.391 38.0079C168.474 38.055 168.564 38.0988 168.651 38.1426C168.87 38.2606 169.096 38.3717 169.336 38.4695C170.241 38.8401 171.132 38.9782 172.017 38.8873C172.536 38.83 173.025 38.6986 173.481 38.4897C173.491 38.4829 173.501 38.4796 173.514 38.4762C173.528 38.4695 173.541 38.4627 173.554 38.4593C173.558 38.4593 173.561 38.456 173.564 38.456C173.804 38.3482 174.017 38.2168 174.21 38.0719C174.453 37.8832 174.659 37.6675 174.822 37.4148C175.125 36.9532 175.278 36.4141 175.278 35.8009C175.278 34.9249 174.918 34.2442 174.203 33.7557" fill="#19B3B5"/>
<path d="M189.958 39.2984C189.273 39.2984 188.661 39.1569 188.122 38.8739C187.583 38.5908 187.16 38.1865 186.858 37.6676C186.551 37.1487 186.398 36.549 186.398 35.8717C186.398 35.1945 186.548 34.5712 186.844 34.0455C187.14 33.5199 187.556 33.1156 188.092 32.8258C188.624 32.5394 189.243 32.3945 189.945 32.3945C190.647 32.3945 191.239 32.5394 191.778 32.8258C192.317 33.1156 192.739 33.5199 193.042 34.0455C193.348 34.5712 193.501 35.1776 193.501 35.8717C193.501 36.5658 193.348 37.1454 193.042 37.6676C192.739 38.1865 192.32 38.5908 191.784 38.8739C191.249 39.1569 190.64 39.2984 189.958 39.2984M189.931 37.762C190.45 37.762 190.876 37.5868 191.216 37.2363C191.555 36.8859 191.721 36.4277 191.721 35.8583C191.721 35.2888 191.558 34.8171 191.232 34.4633C190.906 34.1095 190.49 33.931 189.978 33.931C189.466 33.931 189.02 34.1062 188.681 34.4566C188.341 34.807 188.175 35.272 188.175 35.8482C188.175 36.4243 188.338 36.8758 188.671 37.2296C189 37.5834 189.422 37.762 189.928 37.762" fill="#19B3B5"/>
<path d="M149.522 35.7705C149.522 35.7705 149.492 35.7671 149.479 35.7671V37.6506C149.572 37.6573 149.671 37.6607 149.771 37.6607H156.954V35.7705H149.518H149.522Z" fill="#19B3B5"/>
<path d="M182.356 35.7808C182.356 35.7808 182.326 35.7808 182.312 35.7808V37.6642C182.406 37.671 182.505 37.6744 182.609 37.6744H187.243V35.7808H182.356V35.7808Z" fill="#19B3B5"/>
<path d="M183.711 33.0414C183.554 32.8898 183.361 32.8123 183.129 32.8123C182.896 32.8123 182.699 32.8864 182.54 33.0414C182.38 33.193 182.3 33.4053 182.3 33.6748V35.7807H177.739V37.6743H183.025C183.328 37.6743 183.554 37.5934 183.711 37.4351C183.864 37.2733 183.94 37.0476 183.94 36.7511V33.6782C183.94 33.4053 183.864 33.1964 183.711 33.0447" fill="#19B3B5"/>
<path d="M131.458 34.5711C131.458 34.2106 131.521 33.8332 131.651 33.4491C131.781 33.065 131.94 32.7482 132.133 32.5023C132.389 32.1889 132.672 32.0339 132.975 32.0339C133.215 32.0339 133.411 32.1182 133.564 32.2833C133.714 32.4484 133.79 32.6404 133.79 32.8594C133.79 32.9942 133.76 33.1155 133.707 33.22C133.65 33.3278 133.567 33.4423 133.451 33.567C133.301 33.7456 133.188 33.9208 133.111 34.0859C133.038 34.2544 132.998 34.4397 132.998 34.6317C132.998 34.9822 133.108 35.2517 133.318 35.4505C133.531 35.6493 133.853 35.7504 134.289 35.7504H142.253V33.6445C142.253 33.375 142.333 33.1627 142.493 33.0111C142.652 32.8594 142.845 32.7819 143.082 32.7819C143.318 32.7819 143.507 32.8561 143.664 33.0111C143.82 33.1627 143.897 33.375 143.897 33.6445V36.714C143.897 37.0105 143.817 37.2396 143.664 37.4014C143.511 37.5631 143.281 37.644 142.982 37.644H134.542C133.547 37.644 132.785 37.3778 132.256 36.8522C131.724 36.3232 131.461 35.5617 131.461 34.5711" fill="#19B3B5"/>
<path d="M153.27 31.926C153.004 31.3633 152.612 30.9253 152.099 30.6153C151.587 30.3019 150.975 30.1436 150.266 30.1436H148.56C149.268 30.1436 149.88 30.3019 150.393 30.6153C150.905 30.9253 151.297 31.3666 151.564 31.926C151.723 32.2629 151.833 32.6369 151.9 33.0379C151.999 33.2872 152.056 33.5669 152.056 33.8869C152.056 34.207 152.009 34.4766 151.913 34.7192C151.803 35.5211 151.527 36.1714 151.078 36.6633C150.486 37.3136 149.644 37.6404 148.56 37.6404H150.266C151.354 37.6404 152.192 37.3136 152.785 36.6633C153.377 36.013 153.673 35.0898 153.673 33.8971C153.673 33.1457 153.536 32.4853 153.27 31.9226" fill="#19B3B5"/>
<path d="M151.913 34.7194C151.84 34.9115 151.733 35.0867 151.6 35.235C151.294 35.5786 150.822 35.7505 150.176 35.7505H140.968C140.442 35.7505 140.06 35.8852 139.827 36.1548C139.594 36.4243 139.478 36.8253 139.478 37.3476C139.478 37.4486 139.484 37.5464 139.491 37.6373H148.556C149.644 37.6373 150.482 37.3105 151.075 36.6602C151.524 36.1683 151.803 35.518 151.913 34.7161" fill="#19B3B5"/>
<path d="M151.594 32.5526C151.724 32.6941 151.827 32.8592 151.9 33.0378C151.837 32.6335 151.724 32.2629 151.564 31.9225C151.298 31.3599 150.906 30.9218 150.393 30.6085C149.881 30.2951 149.269 30.1401 148.56 30.1401H145.696C145.41 30.1401 145.194 30.2244 145.051 30.3928C144.904 30.5613 144.831 30.7938 144.831 31.0903C144.831 31.3868 144.904 31.6193 145.051 31.7878C145.197 31.9562 145.41 32.0438 145.696 32.0438H150.18C150.816 32.0438 151.285 32.2123 151.594 32.5493" fill="#19B3B5"/>
<path d="M138.42 31.1038C138.42 31.6362 137.998 32.0641 137.472 32.0641C136.947 32.0641 136.527 31.6362 136.527 31.1038C136.527 30.5715 136.95 30.1436 137.472 30.1436C137.994 30.1436 138.42 30.5748 138.42 31.1038Z" fill="#19B3B5"/>
<path d="M140.48 31.1038C140.48 31.6362 140.057 32.0641 139.532 32.0641C139.006 32.0641 138.587 31.6362 138.587 31.1038C138.587 30.5715 139.009 30.1436 139.532 30.1436C140.054 30.1436 140.48 30.5748 140.48 31.1038Z" fill="#19B3B5"/>
<path d="M39.314 8.96364C39.191 10.6247 39.0645 12.2892 38.9448 13.9537C38.7585 16.5582 38.5888 19.1628 38.3925 21.7707C38.2961 23.105 37.5176 23.8732 36.2934 23.8799C34.9294 23.89 34.1144 23.1151 34.1842 21.7201C34.284 19.6918 34.4736 17.6668 34.6233 15.6418C34.7398 14.1053 34.8529 12.5689 34.9693 11.0324C35.0858 9.52296 35.2055 8.01347 35.3286 6.42986C34.9993 6.4029 34.6999 6.38605 34.4038 6.35573C33.6453 6.27487 33.113 5.79978 32.9733 5.09221C32.8036 4.24312 33.0431 3.54229 33.7351 3.19861C34.2208 2.95602 34.7631 2.80439 35.2953 2.70668C35.8143 2.61571 36.3499 2.61571 36.8789 2.62245C40.4917 2.66625 41.9588 3.59283 43.2063 7.09026C44.2842 10.1092 45.4918 13.0743 46.7061 16.2314C46.8491 15.8844 46.9456 15.6755 47.0254 15.4666C48.3395 11.9893 49.6402 8.50877 50.9709 5.03493C51.7095 3.10764 53.1832 2.3192 55.1892 2.7269C56.6131 3.01667 57.4581 3.92977 57.5945 5.44263C57.8772 8.59974 58.1234 11.7602 58.3829 14.9207C58.5459 16.9221 58.6923 18.9269 58.8719 20.9283C59.0083 22.4681 58.4727 23.4756 57.3017 23.7991C55.8147 24.2101 54.5804 23.479 54.3908 21.9459C54.1912 20.3084 54.1313 18.654 54.0215 17.0064C53.8386 14.3176 53.6689 11.6255 53.3662 8.89962C53.2797 9.10852 53.1865 9.32079 53.1067 9.53306C51.786 13.081 50.4819 16.6324 49.1445 20.1736C48.5224 21.8246 46.9456 22.5389 45.4053 21.929C44.5171 21.5786 44.0214 20.8778 43.692 20.0085C42.378 16.5549 41.0473 13.108 39.7199 9.65773C39.6301 9.4185 39.5236 9.18265 39.4238 8.94342C39.3872 8.95016 39.3506 8.9569 39.3107 8.96364" fill="#545554"/>
<path d="M122.405 3.90956C123.114 4.25997 123.749 4.71821 123.909 5.57403C124.209 7.20145 122.808 8.3841 121.218 7.83152C120.659 7.6361 120.137 7.32949 119.594 7.08352C118.2 6.44671 116.76 6.11651 115.223 6.4366C114.202 6.64887 113.593 7.23177 113.48 8.10445C113.36 9.0344 113.756 9.85653 114.727 10.2406C116.015 10.7494 117.359 11.1066 118.676 11.5412C119.511 11.8175 120.363 12.0668 121.171 12.4139C123.207 13.2866 124.465 14.7927 124.541 17.1007C124.621 19.4728 123.706 21.3798 121.657 22.6029C119.425 23.9338 116.983 24.0787 114.485 23.6778C112.864 23.4217 111.297 22.9298 109.9 22.0571C109.395 21.7404 108.945 21.1979 108.683 20.652C108.33 19.9142 108.563 19.1527 109.155 18.5731C109.751 17.9869 110.479 17.8656 111.238 18.1755C111.723 18.3743 112.172 18.6708 112.638 18.9269C114.232 19.8131 115.908 20.4297 117.755 20.0927C118.33 19.9883 118.966 19.7221 119.385 19.3245C120.373 18.3743 120.07 16.7267 118.776 16.1539C117.575 15.6182 116.274 15.3217 115.033 14.8769C113.936 14.4827 112.801 14.1424 111.79 13.5831C109.598 12.3735 108.6 10.4293 108.859 7.90565C109.115 5.40556 110.579 3.82869 112.884 3.12449C114.132 2.74375 117.003 1.77673 122.415 3.90619" fill="#545554"/>
<path d="M145.902 4.94739C145.616 4.94739 145.419 4.9575 145.223 4.94739C144.381 4.90022 143.856 4.45209 143.683 3.65018C143.52 2.89206 143.822 2.09689 144.528 1.79027C146.048 1.1265 147.585 1.15009 149.036 2.00592C149.797 2.45404 150.107 3.23911 150.117 4.11178C150.143 5.92115 150.137 7.73051 150.143 9.53987V10.2575C150.739 9.74203 151.218 9.25347 151.767 8.86262C153.473 7.64964 155.373 7.3464 157.372 7.86191C159.435 8.39428 160.766 10.0453 160.832 12.232C160.902 14.5973 160.865 16.9694 160.872 19.3347V20.2107C161.181 20.2107 161.434 20.2208 161.69 20.2107C162.376 20.177 162.898 20.4331 163.194 21.0767C163.474 21.6933 163.314 22.5053 162.838 23.0073C161.667 24.2439 158.191 24.0316 157.216 22.6299C156.963 22.2661 156.837 21.7842 156.737 21.3395C156.654 20.9756 156.677 20.5847 156.677 20.204C156.67 18.307 156.68 16.4067 156.674 14.5063C156.66 12.0096 155.183 10.8303 152.818 11.5581C151.96 11.8209 151.188 12.4072 150.426 12.9194C150.236 13.044 150.157 13.4585 150.157 13.7381C150.137 16.3966 150.16 19.055 150.137 21.7135C150.123 23.3341 148.776 24.2607 147.262 23.7351C146.587 23.5026 146.138 23.0343 145.998 22.32C145.932 21.9729 145.908 21.609 145.908 21.2552C145.902 16.1169 145.905 10.9786 145.905 5.84028V4.95076L145.902 4.94739Z" fill="#545554"/>
<path d="M179.375 20.2106H180.237C180.929 20.2106 181.415 20.5543 181.697 21.1742C181.967 21.7807 181.804 22.5692 181.298 23.0173C181.055 23.2329 180.763 23.4351 180.457 23.5328C179.176 23.9506 177.865 23.9574 176.661 23.3509C176.089 23.0645 175.666 22.4782 175.11 21.9694C175.12 21.9593 174.987 22.0604 174.858 22.1615C172.665 23.8428 170.24 24.3213 167.622 23.4553C165.789 22.8488 164.741 21.3596 164.645 19.4424C164.551 17.5117 165.41 16.0831 167.206 15.234C169.029 14.3647 170.962 14.3479 172.908 14.5534C173.633 14.6275 174.342 14.7758 175.184 14.9105C175.144 14.1693 175.187 13.4516 175.047 12.771C174.834 11.713 173.939 10.992 172.669 11.0526C171.548 11.1099 170.433 11.4367 169.332 11.7164C168.806 11.8545 168.331 12.1712 167.822 12.3869C166.85 12.8013 165.952 12.5351 165.526 11.7231C165.047 10.8066 165.24 9.64083 166.152 9.20954C167.336 8.64686 168.597 8.19873 169.871 7.89885C171.601 7.49453 173.374 7.50126 175.12 7.90896C177.775 8.5323 179.295 10.3956 179.352 13.1551C179.395 15.234 179.365 17.3096 179.369 19.3885V20.2106M172.11 17.0737C171.424 17.1546 170.826 17.1781 170.253 17.3062C169.215 17.542 168.73 18.1485 168.76 19.0414C168.793 19.9107 169.378 20.4869 170.396 20.6554C171.634 20.8609 172.805 20.6149 173.923 20.0893C175.194 19.4929 175.187 19.4693 175.16 18.0373C175.154 17.6768 175.041 17.505 174.698 17.4578C173.81 17.3331 172.921 17.195 172.11 17.0771" fill="#545554"/>
<path d="M66.1307 17.0134C66.2571 18.6543 67.3217 19.8504 68.995 20.2244C70.6517 20.5951 72.2319 20.4165 73.6957 19.4731C74.1381 19.1867 74.6072 18.9171 75.0996 18.7419C75.8148 18.4825 76.5899 18.7588 76.9925 19.3214C77.4216 19.9279 77.4283 20.7534 76.9625 21.3835C76.7696 21.6497 76.5334 21.9058 76.2606 22.0776C72.9339 24.1734 69.4275 24.5373 65.8745 22.8425C62.9071 21.4239 61.41 18.1017 61.9224 14.5672C62.8272 8.27659 70.0629 5.31152 75.0164 9.22338C76.8694 10.6857 77.6545 12.6939 77.578 15.0423C77.5381 16.2351 76.6332 16.9865 75.2559 17.0033C73.4495 17.0269 71.6398 17.01 69.8333 17.01H66.1373M66.114 14.1899H73.3164C73.2798 12.1851 72.019 10.9957 70.0562 10.9586C67.8207 10.9216 66.2238 12.2626 66.114 14.1899Z" fill="#545554"/>
<path d="M183.741 11.1367C183.238 11.1367 182.843 11.1536 182.447 11.1367C181.535 11.0963 180.913 10.4258 180.893 9.47562C180.873 8.5524 181.502 7.84146 182.417 7.79092C182.872 7.76397 183.332 7.78755 183.864 7.78755C183.864 6.88456 183.857 6.04221 183.864 5.19986C183.874 3.89928 184.656 3.09736 185.913 3.09399C187.131 3.09399 187.896 3.86558 187.932 5.1628C187.956 5.9883 187.952 6.8138 187.962 7.6393C187.962 7.65615 187.979 7.67636 188.029 7.78081C189.127 7.78081 190.264 7.75723 191.402 7.78755C192.69 7.81451 193.415 9.02412 192.879 10.2034C192.59 10.8335 192.084 11.1367 191.402 11.1401C190.281 11.1435 189.16 11.1401 187.996 11.1401C187.976 11.3557 187.939 11.5242 187.936 11.696C187.932 13.9738 187.926 16.2515 187.936 18.5258C187.942 19.9241 188.598 20.4767 189.962 20.2037C190.388 20.1195 190.803 19.9477 191.216 19.7994C192.071 19.4995 192.806 19.6916 193.212 20.325C193.674 21.0461 193.565 22.0569 192.919 22.6533C192.663 22.8892 192.354 23.0913 192.031 23.2194C190.417 23.8629 188.751 24.0651 187.044 23.6607C184.988 23.1756 183.791 21.6256 183.747 19.3075C183.704 16.8512 183.734 14.3949 183.731 11.9386V11.1334" fill="#545554"/>
<path d="M81.2741 11.3661H80.6387C79.7704 11.356 79.2381 10.9651 79.0186 10.1733C78.7923 9.3478 79.0651 8.54926 79.817 8.17862C81.0944 7.55192 82.4185 7.52496 83.696 8.17526C84.4345 8.55263 84.8137 9.22987 84.8769 10.0689C84.9102 10.4631 84.9169 10.8573 84.9435 11.4166C85.3327 10.8371 85.6188 10.3788 85.9415 9.95092C86.7399 8.88957 87.6148 7.92255 89.0354 7.7406C90.0567 7.61257 90.7886 7.96635 91.1212 8.75816C91.4838 9.62072 91.2377 10.6416 90.4825 11.2246C90.1698 11.4671 89.8105 11.6491 89.4512 11.8075C88.4033 12.2691 87.3554 12.7441 86.2808 13.1384C85.6986 13.354 85.4924 13.6438 85.5024 14.2873C85.5456 16.7234 85.5356 19.1561 85.5157 21.5888C85.499 23.3207 84.2049 24.2675 82.6114 23.7418C81.7365 23.4554 81.2841 22.7748 81.2807 21.6663C81.2708 18.4957 81.2774 15.3251 81.2774 12.1545V11.3661H81.2741Z" fill="#545554"/>
<path d="M94.6307 11.3697C94.2847 11.3495 94.002 11.3394 93.7192 11.3192C92.9773 11.2585 92.4883 10.8778 92.3053 10.2174C92.1057 9.49295 92.322 8.78201 92.8808 8.35747C94.0286 7.48143 96.9095 7.53871 97.9408 8.53605C98.3134 8.89994 98.5363 9.45589 98.7326 9.95793C98.8656 10.2949 98.8657 10.7026 98.8657 11.0799C98.8756 14.5807 98.8823 18.0883 98.8657 21.5924C98.8557 23.2771 97.5616 24.2374 96.0146 23.7455C95.1131 23.4591 94.6374 22.7886 94.634 21.707C94.6207 19.2777 94.6274 16.8416 94.6274 14.4089V11.3663" fill="#545554"/>
<path d="M131.395 17.0132C131.521 18.6541 132.586 19.8502 134.262 20.2242C135.919 20.5948 137.496 20.4163 138.96 19.4728C139.402 19.1864 139.871 18.9169 140.364 18.7417C141.079 18.4822 141.857 18.7585 142.257 19.3212C142.686 19.9277 142.692 20.7532 142.227 21.3833C142.034 21.6494 141.794 21.9055 141.521 22.0774C138.195 24.1731 134.692 24.537 131.135 22.8422C128.168 21.4237 126.674 18.1015 127.183 14.567C128.088 8.27634 135.324 5.31128 140.277 9.22314C142.133 10.6855 142.915 12.6936 142.839 15.0421C142.802 16.2348 141.894 16.9862 140.517 17.0031C138.71 17.0266 136.9 17.0098 135.094 17.0098H131.395M131.371 14.1896H138.574C138.537 12.1848 137.276 10.9954 135.314 10.9584C133.075 10.9213 131.478 12.2623 131.368 14.1896" fill="#545554"/>
<path d="M98.8779 3.7242C98.8779 5.04837 97.8167 6.11984 96.5093 6.11984C95.2019 6.11984 94.1406 5.04837 94.1406 3.7242C94.1406 2.40003 95.2019 1.3252 96.5093 1.3252C97.8167 1.3252 98.8779 2.40003 98.8779 3.7242Z" fill="#545554"/>
</g>
</svg>
