<svg width="18" height="17" viewBox="0 0 18 17" fill="none" xmlns="http://www.w3.org/2000/svg">
<path d="M17.5 8.5C17.5 12.8917 13.7217 16.5 9 16.5C4.27827 16.5 0.5 12.8917 0.5 8.5C0.5 4.10826 4.27827 0.5 9 0.5C13.7217 0.5 17.5 4.10826 17.5 8.5Z" fill="white" stroke="black"/>
<path d="M10.06 13H8.065V5.62H10.06V13ZM7.825 3.205C7.825 2.865 7.945 2.575 8.185 2.335C8.425 2.085 8.715 1.96 9.055 1.96C9.395 1.96 9.685 2.08 9.925 2.32C10.165 2.56 10.285 2.855 10.285 3.205C10.285 3.535 10.165 3.82 9.925 4.06C9.685 4.3 9.395 4.42 9.055 4.42C8.715 4.42 8.425 4.3 8.185 4.06C7.945 3.82 7.825 3.535 7.825 3.205Z" fill="black"/>
</svg>
