<svg width="24" height="25" viewBox="0 0 24 25" fill="none" xmlns="http://www.w3.org/2000/svg">
<path d="M4.47012 21.8747H19.5301C21.0701 21.8747 22.0301 20.2047 21.2601 18.8747L13.7301 5.86469C12.9601 4.53469 11.0401 4.53469 10.2701 5.86469L2.74012 18.8747C1.97012 20.2047 2.93012 21.8747 4.47012 21.8747ZM12.0001 14.8747C11.4501 14.8747 11.0001 14.4247 11.0001 13.8747V11.8747C11.0001 11.3247 11.4501 10.8747 12.0001 10.8747C12.5501 10.8747 13.0001 11.3247 13.0001 11.8747V13.8747C13.0001 14.4247 12.5501 14.8747 12.0001 14.8747ZM13.0001 18.8747H11.0001V16.8747H13.0001V18.8747Z" fill="#EF6286"/>
</svg>
